<?xml version="1.0" encoding="UTF-8" standalone="no"?>
<!-- Created with Inkscape (http://www.inkscape.org/) -->

<svg
   width="37.819557mm"
   height="37.819542mm"
   viewBox="0 0 37.819557 37.819542"
   version="1.1"
   id="svg1"
   xml:space="preserve"
   xmlns:inkscape="http://www.inkscape.org/namespaces/inkscape"
   xmlns:sodipodi="http://sodipodi.sourceforge.net/DTD/sodipodi-0.dtd"
   xmlns="http://www.w3.org/2000/svg"
   xmlns:svg="http://www.w3.org/2000/svg"><sodipodi:namedview
     id="namedview1"
     pagecolor="#ffffff"
     bordercolor="#999999"
     borderopacity="1"
     inkscape:showpageshadow="2"
     inkscape:pageopacity="0"
     inkscape:pagecheckerboard="0"
     inkscape:deskcolor="#d1d1d1"
     inkscape:document-units="mm" /><defs
     id="defs1" /><g
     inkscape:label="Capa 1"
     inkscape:groupmode="layer"
     id="layer1"
     transform="translate(-149.67478,-60.656389)"><path
       stroke="#d68a91"
       vector-effect="non-scaling-stroke"
       d="M 187.22975,79.566161 A 18.645187,18.645187 0 0 0 168.58456,60.920973 18.645187,18.645187 0 0 0 149.93937,79.566161 18.645187,18.645187 0 0 0 168.58456,98.211348 18.645187,18.645187 0 0 0 187.22975,79.566161"
       id="path2"
       style="fill:none;stroke-width:0.529167;stroke-linecap:butt"
       inkscape:export-filename="carry_red.svg"
       inkscape:export-xdpi="96"
       inkscape:export-ydpi="96" /><path
       stroke="#d68a91"
       vector-effect="non-scaling-stroke"
       d="M 185.21627,79.566161 A 16.631708,16.631708 0 0 0 168.58456,62.934453 16.631708,16.631708 0 0 0 151.95285,79.566161 16.631708,16.631708 0 0 0 168.58456,96.197869 16.631708,16.631708 0 0 0 185.21627,79.566161"
       id="path39"
       style="fill:none;stroke-width:0.529167;stroke-linecap:butt" /><path
       stroke="#d68a91"
       vector-effect="non-scaling-stroke"
       d="m 170.63773,69.551682 c -3.22792,-1.738313 -6.61723,0.955145 -6.60665,4.30477 q 0,0.177271 0.17727,0.166688 l 0.69056,-0.04233 q 0.1323,-0.0079 0.14023,-0.142875 c 0.23813,-5.162021 7.00352,-4.982104 7.08819,0.02117 q 0.003,0.121709 0.12436,0.121709 h 0.73554 q 0.16933,0 0.15875,-0.169334 -0.18786,-3.008312 -2.50825,-4.259791"
       id="path42"
       style="fill:none;stroke-width:0.529167;stroke-linecap:butt" /><path
       stroke="#d68a91"
       vector-effect="non-scaling-stroke"
       d="m 176.14371,76.163619 a 0.13229166,0.13229166 0 0 0 -0.1323,-0.132292 h -14.351 a 0.13229166,0.13229166 0 0 0 -0.13229,0.132292 v 13.361458 a 0.13229166,0.13229166 0 0 0 0.13229,0.132292 h 14.351 a 0.13229166,0.13229166 0 0 0 0.1323,-0.132292 V 76.163619"
       id="path43"
       style="fill:none;stroke-width:0.529167;stroke-linecap:butt" /><path
       stroke="#d68a91"
       vector-effect="non-scaling-stroke"
       d="m 164.51537,79.533934 a 0.98954165,1.2276667 1.6 0 0 1.02344,-1.199567 0.98954165,1.2276667 1.6 0 0 -0.95486,-1.254813 0.98954165,1.2276667 1.6 0 0 -1.02343,1.199568 0.98954165,1.2276667 1.6 0 0 0.95485,1.254812"
       id="path52"
       style="fill:none;stroke-width:0.529167;stroke-linecap:butt" /><path
       stroke="#d68a91"
       vector-effect="non-scaling-stroke"
       d="m 172.87131,79.537057 a 0.74877082,1.2329583 0.1 0 0 0.75092,-1.231662 0.74877082,1.2329583 0.1 0 0 -0.74663,-1.234255 0.74877082,1.2329583 0.1 0 0 -0.75091,1.231662 0.74877082,1.2329583 0.1 0 0 0.74662,1.234255"
       id="path53"
       style="fill:none;stroke-width:0.529167;stroke-linecap:butt" /><path
       fill="#ac1522"
       d="m 187.22975,79.566161 a 18.645187,18.645187 0 0 1 -18.64519,18.645187 18.645187,18.645187 0 0 1 -18.64519,-18.645187 18.645187,18.645187 0 0 1 18.64519,-18.645188 18.645187,18.645187 0 0 1 18.64519,18.645188 z m -2.01348,0 a 16.631708,16.631708 0 0 0 -16.63171,-16.631708 16.631708,16.631708 0 0 0 -16.63171,16.631708 16.631708,16.631708 0 0 0 16.63171,16.631708 16.631708,16.631708 0 0 0 16.63171,-16.631708 z"
       id="path76"
       style="fill:#000000;fill-opacity:1;stroke-width:0.264583" /><path
       fill="#ac1522"
       d="m 164.03108,73.856452 c -0.0106,-3.349625 3.37873,-6.043083 6.60665,-4.30477 q 2.32039,1.251479 2.50825,4.259791 0.0106,0.169334 -0.15875,0.169334 h -0.73554 q -0.12171,0 -0.12436,-0.121709 c -0.0847,-5.00327 -6.85006,-5.183187 -7.08819,-0.02117 q -0.008,0.134937 -0.14023,0.142875 l -0.69056,0.04233 q -0.17727,0.01058 -0.17727,-0.166688 z"
       id="path81"
       style="fill:#000000;fill-opacity:1;stroke-width:0.264583" /><path
       fill="#ac1522"
       d="m 176.14371,89.525077 a 0.13229166,0.13229166 0 0 1 -0.1323,0.132292 h -14.351 a 0.13229166,0.13229166 0 0 1 -0.13229,-0.132292 V 76.163619 a 0.13229166,0.13229166 0 0 1 0.13229,-0.132292 h 14.351 a 0.13229166,0.13229166 0 0 1 0.1323,0.132292 z m -11.62834,-9.991143 a 0.98954165,1.2276667 1.6 0 0 1.02344,-1.199567 0.98954165,1.2276667 1.6 0 0 -0.95486,-1.254813 0.98954165,1.2276667 1.6 0 0 -1.02343,1.199568 0.98954165,1.2276667 1.6 0 0 0.95485,1.254812 z m 8.35594,0.0031 a 0.74877082,1.2329583 0.1 0 0 0.75092,-1.231662 0.74877082,1.2329583 0.1 0 0 -0.74663,-1.234255 0.74877082,1.2329583 0.1 0 0 -0.75091,1.231662 0.74877082,1.2329583 0.1 0 0 0.74662,1.234255 z"
       id="path89"
       style="fill:#000000;fill-opacity:1;stroke-width:0.264583" /><ellipse
       fill="#ffffff"
       cx="73.681717"
       cy="-166.67197"
       transform="rotate(91.6)"
       rx="1.2276666"
       ry="0.98954165"
       id="ellipse102"
       style="stroke-width:0.264583" /><ellipse
       fill="#ffffff"
       cx="78.002258"
       cy="-173.00986"
       transform="rotate(90.1)"
       rx="1.2329583"
       ry="0.74877083"
       id="ellipse103"
       style="stroke-width:0.264583" /></g></svg>
