<?xml version="1.0" encoding="UTF-8" standalone="no"?>
<!-- Created with Inkscape (http://www.inkscape.org/) -->

<svg
   width="37.322124mm"
   height="37.830128mm"
   viewBox="0 0 37.322124 37.830128"
   version="1.1"
   id="svg1"
   xml:space="preserve"
   xmlns:inkscape="http://www.inkscape.org/namespaces/inkscape"
   xmlns:sodipodi="http://sodipodi.sourceforge.net/DTD/sodipodi-0.dtd"
   xmlns="http://www.w3.org/2000/svg"
   xmlns:svg="http://www.w3.org/2000/svg"><sodipodi:namedview
     id="namedview1"
     pagecolor="#ffffff"
     bordercolor="#999999"
     borderopacity="1"
     inkscape:showpageshadow="2"
     inkscape:pageopacity="0"
     inkscape:pagecheckerboard="0"
     inkscape:deskcolor="#d1d1d1"
     inkscape:document-units="mm" /><defs
     id="defs1" /><g
     inkscape:label="Capa 1"
     inkscape:groupmode="layer"
     id="layer1"
     transform="translate(-150.17749,-110.09114)"><path
       stroke="#808080"
       vector-effect="non-scaling-stroke"
       d="m 168.8711,147.65665 a 18.650479,18.396479 89.9 0 0 18.36391,-18.68257 18.650479,18.396479 89.9 0 0 -18.42899,-18.61833 18.650479,18.396479 89.9 0 0 -18.36391,18.68257 18.650479,18.396479 89.9 0 0 18.42899,18.61833"
       id="path18"
       style="fill:none;stroke-width:0.529167;stroke-linecap:butt"
       inkscape:export-filename="couple_red.svg"
       inkscape:export-xdpi="96"
       inkscape:export-ydpi="96" /><path
       stroke="#808080"
       vector-effect="non-scaling-stroke"
       d="m 162.70287,133.59408 c 3.08504,0.38893 4.91332,3.3946 5.82613,6.25475 a 0.08202083,0.08202083 0 0 0 0.1561,-0.003 c 0.94456,-3.27819 3.68829,-6.83419 7.44273,-6.19654 2.69875,0.46037 4.17777,4.0005 4.72546,6.30767 q 0.082,0.3466 0.30427,0.0688 c 4.05342,-5.00856 5.25727,-11.39825 2.81517,-17.35667 -3.64596,-8.89794 -14.01763,-12.9831 -22.65363,-8.42698 -9.47737,5.00063 -11.83216,17.70592 -4.71752,25.81011 q 0.11113,0.127 0.15875,-0.0344 c 0.8255,-2.77019 2.20133,-6.89504 5.94254,-6.42408"
       id="path60"
       style="fill:none;stroke-width:0.529167;stroke-linecap:butt" /><path
       stroke="#808080"
       vector-effect="non-scaling-stroke"
       d="m 162.53746,132.51987 a 5.2784374,5.0297291 89.9 0 0 5.02052,-5.28722 5.2784374,5.0297291 89.9 0 0 -5.03894,-5.26966 5.2784374,5.0297291 89.9 0 0 -5.02052,5.28723 5.2784374,5.0297291 89.9 0 0 5.03894,5.26965"
       id="path62"
       style="fill:none;stroke-width:0.529167;stroke-linecap:butt" /><path
       stroke="#808080"
       vector-effect="non-scaling-stroke"
       d="m 175.12517,132.5172 a 5.0244374,5.2784374 0.2 0 0 5.04282,-5.26087 5.0244374,5.2784374 0.2 0 0 -5.00599,-5.29596 5.0244374,5.2784374 0.2 0 0 -5.04283,5.26087 5.0244374,5.2784374 0.2 0 0 5.006,5.29596"
       id="path63"
       style="fill:none;stroke-width:0.529167;stroke-linecap:butt" /><path
       fill="#000000"
       d="m 168.8711,147.65665 a 18.650479,18.396479 89.9 0 1 -18.42899,-18.61833 18.650479,18.396479 89.9 0 1 18.36391,-18.68257 18.650479,18.396479 89.9 0 1 18.42899,18.61833 18.650479,18.396479 89.9 0 1 -18.36391,18.68257 z m -6.16823,-14.06257 c 3.08504,0.38893 4.91332,3.3946 5.82613,6.25475 a 0.08202083,0.08202083 0 0 0 0.1561,-0.003 c 0.94456,-3.27819 3.68829,-6.83419 7.44273,-6.19654 2.69875,0.46037 4.17777,4.0005 4.72546,6.30767 q 0.082,0.3466 0.30427,0.0688 c 4.05342,-5.00856 5.25727,-11.39825 2.81517,-17.35667 -3.64596,-8.89794 -14.01763,-12.9831 -22.65363,-8.42698 -9.47737,5.00063 -11.83216,17.70592 -4.71752,25.81011 q 0.11113,0.127 0.15875,-0.0344 c 0.8255,-2.77019 2.20133,-6.89504 5.94254,-6.42408 z"
       id="path107"
       style="fill:#000000;fill-opacity:1;stroke-width:0.264583" /><ellipse
       fill="#000000"
       cx="127.5249"
       cy="-162.30592"
       transform="rotate(89.9)"
       rx="5.2784376"
       ry="5.0297294"
       id="ellipse112"
       style="fill:#000000;fill-opacity:1;stroke-width:0.264583" /><ellipse
       fill="#000000"
       cx="126.62664"
       cy="-175.58665"
       transform="rotate(90.2)"
       rx="5.2784376"
       ry="5.0244374"
       id="ellipse113"
       style="fill:#000000;fill-opacity:1;stroke-width:0.264583" /></g></svg>
