<?xml version="1.0" encoding="UTF-8" standalone="no"?>
<!-- Created with Inkscape (http://www.inkscape.org/) -->

<svg
   width="37.83012mm"
   height="37.830124mm"
   viewBox="0 0 37.83012 37.830124"
   version="1.1"
   id="svg1"
   xml:space="preserve"
   xmlns:inkscape="http://www.inkscape.org/namespaces/inkscape"
   xmlns:sodipodi="http://sodipodi.sourceforge.net/DTD/sodipodi-0.dtd"
   xmlns="http://www.w3.org/2000/svg"
   xmlns:svg="http://www.w3.org/2000/svg"><sodipodi:namedview
     id="namedview1"
     pagecolor="#ffffff"
     bordercolor="#999999"
     borderopacity="1"
     inkscape:showpageshadow="2"
     inkscape:pageopacity="0"
     inkscape:pagecheckerboard="0"
     inkscape:deskcolor="#d1d1d1"
     inkscape:document-units="mm" /><defs
     id="defs1" /><g
     inkscape:label="Capa 1"
     inkscape:groupmode="layer"
     id="layer1"
     transform="translate(-287.3957,-60.651098)"><path
       stroke="#808080"
       vector-effect="non-scaling-stroke"
       d="M 324.96125,79.566161 A 18.650479,18.650479 0 0 0 306.31077,60.915682 18.650479,18.650479 0 0 0 287.66029,79.566161 18.650479,18.650479 0 0 0 306.31077,98.21664 18.650479,18.650479 0 0 0 324.96125,79.566161"
       id="path3-5"
       style="fill:none;stroke-width:0.529167;stroke-linecap:butt"
       inkscape:export-filename="express_red.svg"
       inkscape:export-xdpi="96"
       inkscape:export-ydpi="96" /><path
       stroke="#808080"
       vector-effect="non-scaling-stroke"
       d="M 322.94248,79.566161 A 16.631708,16.631708 0 0 0 306.31077,62.934453 16.631708,16.631708 0 0 0 289.67906,79.566161 16.631708,16.631708 0 0 0 306.31077,96.197869 16.631708,16.631708 0 0 0 322.94248,79.566161"
       id="path40"
       style="fill:none;stroke-width:0.529167;stroke-linecap:butt" /><path
       stroke="#808080"
       vector-effect="non-scaling-stroke"
       d="m 316.65333,77.380702 c -2.74902,-8.405812 -17.32492,-5.360458 -13.13127,4.810125 q 0.0529,0.124355 0,0.248709 c -0.33073,0.754062 0.15346,0.883708 0.69321,1.164166 3.29935,1.711854 6.88975,2.965979 10.37431,4.262438 2.37067,0.883708 1.63512,-1.391709 2.64848,-2.518834 q 0.0926,-0.103187 0.0979,-0.24077 l 0.045,-0.978959 a 0.30427083,0.301625 11.4 0 0 -0.20108,-0.298979 c -1.70392,-0.613833 -5.11969,-1.550458 -6.31296,-2.836333 -1.32821,-1.42875 -1.8415,-4.262438 1.22238,-3.8735 q 2.2225,0.280458 4.40796,0.460375 a 0.1508125,0.1508125 0 0 0 0.1561,-0.198438"
       id="path44"
       style="fill:none;stroke-width:0.529167;stroke-linecap:butt" /><path
       stroke="#808080"
       vector-effect="non-scaling-stroke"
       d="m 302.28645,75.123807 a 0.08202083,0.08202083 0 0 0 -0.082,-0.08202 h -6.91091 a 0.08202083,0.08202083 0 0 0 -0.082,0.08202 v 0.8255 a 0.08202083,0.08202083 0 0 0 0.082,0.08202 h 6.91091 a 0.08202083,0.08202083 0 0 0 0.082,-0.08202 v -0.8255"
       id="path45"
       style="fill:none;stroke-width:0.529167;stroke-linecap:butt" /><path
       stroke="#808080"
       vector-effect="non-scaling-stroke"
       d="m 300.25975,77.677036 a 0.12170833,0.12170833 0 0 0 -0.12171,-0.121709 h -7.31838 a 0.12170833,0.12170833 0 0 0 -0.12171,0.121709 v 0.746125 a 0.12170833,0.12170833 0 0 0 0.12171,0.121708 h 7.31838 a 0.12170833,0.12170833 0 0 0 0.12171,-0.121708 v -0.746125"
       id="path46"
       style="fill:none;stroke-width:0.529167;stroke-linecap:butt" /><path
       stroke="#808080"
       vector-effect="non-scaling-stroke"
       d="m 310.47266,78.132119 c -0.54504,1.150938 1.06363,2.550583 2.01613,2.891896 q 2.33098,0.833437 4.66989,1.521354 a 0.14022916,0.14022916 0 0 0 0.17992,-0.121708 q 0.19579,-2.151063 -0.45244,-4.201584 a 0.2619375,0.26722916 89.6 0 0 -0.17991,-0.174625 q -0.26459,-0.07938 -0.59532,-0.09525 -1.92087,-0.09789 -4.36827,-0.36777 -0.96043,-0.105834 -1.27,0.547687"
       id="path47"
       style="fill:none;stroke-width:0.529167;stroke-linecap:butt" /><path
       stroke="#808080"
       vector-effect="non-scaling-stroke"
       d="m 302.28047,79.673767 a 0.09789583,0.09789583 0 0 0 -0.0981,-0.09774 l -6.86858,0.01201 a 0.09789583,0.09789583 0 0 0 -0.0977,0.09805 l 0.003,0.772584 a 0.09789583,0.09789583 0 0 0 0.0981,0.09774 l 6.86858,-0.01201 a 0.09789583,0.09789583 0 0 0 0.0977,-0.09806 l -0.003,-0.772583"
       id="path48"
       style="fill:none;stroke-width:0.529167;stroke-linecap:butt" /><path
       stroke="#808080"
       vector-effect="non-scaling-stroke"
       d="m 308.56766,73.470161 0.0212,0.272521 a 0.0635,0.0635 0 0 0 0.0662,0.06085 l 0.79375,-0.06085 a 0.16139583,0.52916666 85.7 0 0 0.51329,-0.201084 l -0.005,-0.07937 a 0.16139583,0.52916666 85.7 0 0 -0.53975,-0.119062 l -0.79111,0.05821 a 0.0635,0.0635 0 0 0 -0.0582,0.06879"
       id="path49"
       style="fill:none;stroke-width:0.529167;stroke-linecap:butt" /><path
       stroke="#808080"
       vector-effect="non-scaling-stroke"
       d="m 305.0487,75.023265 q -0.1217,0.129646 0.0794,0.216958 0.10848,0.04762 0.20108,-0.02646 0.9525,-0.738188 2.27013,-1.203854 0.17198,-0.05821 0.0953,-0.264584 -0.0397,-0.105833 -0.15081,-0.08202 -1.5293,0.309562 -2.49503,1.359958"
       id="path50"
       style="fill:none;stroke-width:0.529167;stroke-linecap:butt" /><path
       stroke="#808080"
       vector-effect="non-scaling-stroke"
       d="m 309.18943,78.920577 a 0.44714583,0.44714583 0 0 0 -0.44714,-0.447145 0.44714583,0.44714583 0 0 0 -0.44715,0.447145 0.44714583,0.44714583 0 0 0 0.44715,0.447146 0.44714583,0.44714583 0 0 0 0.44714,-0.447146"
       id="path51"
       style="fill:none;stroke-width:0.529167;stroke-linecap:butt" /><path
       stroke="#808080"
       vector-effect="non-scaling-stroke"
       d="m 317.12693,82.053244 q 0.09,-1.849437 -0.42862,-3.632729 a 0.25664583,0.254 83.8 0 0 -0.2249,-0.182563 q -2.3495,-0.156104 -4.65931,-0.436562 -0.75671,-0.0926 -1.1721,0.515937 a 0.3413125,0.3413125 0 0 0 -0.0503,0.264584 q 0.38629,1.666875 2.20662,2.291291 2.09285,0.719667 4.12221,1.325563 a 0.15875,0.16139583 10 0 0 0.20637,-0.145521"
       id="path58"
       style="fill:none;stroke-width:0.529167;stroke-linecap:butt" /><path
       fill="#000000"
       d="M 324.96125,79.566161 A 18.650479,18.650479 0 0 1 306.31077,98.21664 18.650479,18.650479 0 0 1 287.66029,79.566161 18.650479,18.650479 0 0 1 306.31077,60.915682 18.650479,18.650479 0 0 1 324.96125,79.566161 Z m -2.01877,0 a 16.631708,16.631708 0 0 0 -16.63171,-16.631708 16.631708,16.631708 0 0 0 -16.63171,16.631708 16.631708,16.631708 0 0 0 16.63171,16.631708 16.631708,16.631708 0 0 0 16.63171,-16.631708 z"
       id="path77"
       style="fill:#000000;fill-opacity:1;stroke-width:0.264583" /><path
       fill="#000000"
       d="m 303.52206,82.190827 c -4.19365,-10.170583 10.38225,-13.215937 13.13127,-4.810125 a 0.1508125,0.1508125 0 0 1 -0.1561,0.198438 q -2.18546,-0.179917 -4.40796,-0.460375 c -3.06388,-0.388938 -2.55059,2.44475 -1.22238,3.8735 1.19327,1.285875 4.60904,2.2225 6.31296,2.836333 a 0.30427083,0.301625 11.4 0 1 0.20108,0.298979 l -0.045,0.978959 q -0.005,0.137583 -0.0979,0.24077 c -1.01336,1.127125 -0.27781,3.402542 -2.64848,2.518834 -3.48456,-1.296459 -7.07496,-2.550584 -10.37431,-4.262438 -0.53975,-0.280458 -1.02394,-0.410104 -0.69321,-1.164166 q 0.0529,-0.124354 0,-0.248709 z m 5.0456,-8.720666 0.0212,0.272521 a 0.0635,0.0635 0 0 0 0.0662,0.06085 l 0.79375,-0.06085 a 0.16139583,0.52916666 85.7 0 0 0.51329,-0.201084 l -0.005,-0.07937 a 0.16139583,0.52916666 85.7 0 0 -0.53975,-0.119062 l -0.79111,0.05821 a 0.0635,0.0635 0 0 0 -0.0582,0.06879 z m -3.51896,1.553104 q -0.1217,0.129646 0.0794,0.216958 0.10848,0.04762 0.20108,-0.02646 0.9525,-0.738188 2.27013,-1.203854 0.17198,-0.05821 0.0953,-0.264584 -0.0397,-0.105833 -0.15081,-0.08202 -1.5293,0.309562 -2.49503,1.359958 z m 4.14073,3.897312 a 0.44714583,0.44714583 0 0 0 -0.44714,-0.447145 0.44714583,0.44714583 0 0 0 -0.44715,0.447145 0.44714583,0.44714583 0 0 0 0.44715,0.447146 0.44714583,0.44714583 0 0 0 0.44714,-0.447146 z"
       id="path83"
       style="fill:#000000;fill-opacity:1;stroke-width:0.264583" /><rect
       fill="#000000"
       x="295.21149"
       y="75.041786"
       width="7.0749583"
       height="0.98954165"
       rx="0.082020834"
       id="rect88"
       style="fill:#000000;fill-opacity:1;stroke-width:0.264583" /><rect
       fill="#000000"
       x="292.69797"
       y="77.555328"
       width="7.5617914"
       height="0.98954165"
       rx="0.12170833"
       id="rect103"
       style="fill:#000000;fill-opacity:1;stroke-width:0.264583" /><path
       fill="#000000"
       d="m 310.47266,78.132119 q 0.30957,-0.653521 1.27,-0.547687 2.4474,0.269875 4.36827,0.36777 0.33073,0.01587 0.59532,0.09525 a 0.2619375,0.26722916 89.6 0 1 0.17991,0.174625 q 0.64823,2.050521 0.45244,4.201584 a 0.14022916,0.14022916 0 0 1 -0.17992,0.121708 q -2.33891,-0.687917 -4.66989,-1.521354 c -0.9525,-0.341313 -2.56117,-1.740958 -2.01613,-2.891896 z m 6.65427,3.921125 q 0.09,-1.849437 -0.42862,-3.632729 a 0.25664583,0.254 83.8 0 0 -0.2249,-0.182563 q -2.3495,-0.156104 -4.65931,-0.436562 -0.75671,-0.0926 -1.1721,0.515937 a 0.3413125,0.3413125 0 0 0 -0.0503,0.264584 q 0.38629,1.666875 2.20662,2.291291 2.09285,0.719667 4.12221,1.325563 a 0.15875,0.16139583 10 0 0 0.20637,-0.145521 z"
       id="path103"
       style="fill:#000000;fill-opacity:1;stroke-width:0.264583" /><rect
       fill="#000000"
       x="295.0766"
       y="80.103325"
       transform="rotate(-0.1)"
       width="7.0643754"
       height="0.96837503"
       rx="0.097895831"
       id="rect105"
       style="fill:#000000;fill-opacity:1;stroke-width:0.264583" /></g></svg>
