<?xml version="1.0" encoding="UTF-8" standalone="no"?>
<!-- Created with Inkscape (http://www.inkscape.org/) -->

<svg
   width="37.83012mm"
   height="37.830128mm"
   viewBox="0 0 37.83012 37.830128"
   version="1.1"
   id="svg1"
   xml:space="preserve"
   xmlns:inkscape="http://www.inkscape.org/namespaces/inkscape"
   xmlns:sodipodi="http://sodipodi.sourceforge.net/DTD/sodipodi-0.dtd"
   xmlns="http://www.w3.org/2000/svg"
   xmlns:svg="http://www.w3.org/2000/svg"><sodipodi:namedview
     id="namedview1"
     pagecolor="#ffffff"
     bordercolor="#999999"
     borderopacity="1"
     inkscape:showpageshadow="2"
     inkscape:pageopacity="0"
     inkscape:pagecheckerboard="0"
     inkscape:deskcolor="#d1d1d1"
     inkscape:document-units="mm" /><defs
     id="defs1" /><g
     inkscape:label="Capa 1"
     inkscape:groupmode="layer"
     id="layer1"
     transform="translate(-287.3957,-113.11533)"><path
       stroke="#808080"
       vector-effect="non-scaling-stroke"
       d="m 324.96125,132.03039 a 18.650479,18.650479 0 0 0 -18.65048,-18.65048 18.650479,18.650479 0 0 0 -18.65048,18.65048 18.650479,18.650479 0 0 0 18.65048,18.65048 18.650479,18.650479 0 0 0 18.65048,-18.65048"
       id="path19"
       style="fill:none;stroke-width:0.529167;stroke-linecap:butt"
       inkscape:export-filename="familiar_red.svg"
       inkscape:export-xdpi="96"
       inkscape:export-ydpi="96" /><path
       stroke="#808080"
       vector-effect="non-scaling-stroke"
       d="m 296.22485,138.67408 c 1.83885,-0.44186 3.48985,0.9181 4.13544,2.5691 a 0.11641667,0.11641667 0 0 0 0.20108,0.0265 c 0.64294,-0.88636 1.34144,-1.77006 2.20133,-2.37596 4.2545,-2.98979 8.59896,-0.46037 10.51719,3.72533 a 0.07408333,0.07408333 0 0 0 0.14023,-0.0238 q 0.21431,-1.89971 1.52929,-3.05858 c 2.24367,-1.97909 4.08517,-0.74348 5.17525,1.54252 q 0.0688,0.14552 0.15346,0.0106 c 6.32619,-10.20762 0.64823,-23.60877 -11.39031,-25.47673 -15.10771,-2.34685 -25.02694,15.08919 -15.39346,26.99809 q 0.0767,0.0953 0.10583,-0.0238 c 0.36248,-1.43404 0.94721,-3.51102 2.62467,-3.91318"
       id="path64"
       style="fill:none;stroke-width:0.529167;stroke-linecap:butt" /><path
       stroke="#808080"
       vector-effect="non-scaling-stroke"
       d="m 306.35202,137.05467 a 6.2864999,6.0272083 89.6 0 0 5.98315,-6.32841 6.2864999,6.0272083 89.6 0 0 -6.07094,-6.24427 6.2864999,6.0272083 89.6 0 0 -5.98316,6.32841 6.2864999,6.0272083 89.6 0 0 6.07095,6.24427"
       id="path65"
       style="fill:none;stroke-width:0.529167;stroke-linecap:butt" /><path
       stroke="#808080"
       vector-effect="non-scaling-stroke"
       d="m 299.23581,135.56522 a 2.5108958,2.5108958 0 0 0 -2.5109,-2.51089 2.5108958,2.5108958 0 0 0 -2.51089,2.51089 2.5108958,2.5108958 0 0 0 2.51089,2.5109 2.5108958,2.5108958 0 0 0 2.5109,-2.5109"
       id="path66"
       style="fill:none;stroke-width:0.529167;stroke-linecap:butt" /><path
       stroke="#808080"
       vector-effect="non-scaling-stroke"
       d="m 318.90758,135.56258 a 2.5003125,2.5003125 0 0 0 -2.50031,-2.50032 2.5003125,2.5003125 0 0 0 -2.50032,2.50032 2.5003125,2.5003125 0 0 0 2.50032,2.50031 2.5003125,2.5003125 0 0 0 2.50031,-2.50031"
       id="path67"
       style="fill:none;stroke-width:0.529167;stroke-linecap:butt" /><path
       fill="#000000"
       d="m 324.96125,132.03039 a 18.650479,18.650479 0 0 1 -18.65048,18.65048 18.650479,18.650479 0 0 1 -18.65048,-18.65048 18.650479,18.650479 0 0 1 18.65048,-18.65048 18.650479,18.650479 0 0 1 18.65048,18.65048 z m -28.7364,6.64369 c 1.83885,-0.44186 3.48985,0.9181 4.13544,2.5691 a 0.11641667,0.11641667 0 0 0 0.20108,0.0265 c 0.64294,-0.88636 1.34144,-1.77006 2.20133,-2.37596 4.2545,-2.98979 8.59896,-0.46037 10.51719,3.72533 a 0.07408333,0.07408333 0 0 0 0.14023,-0.0238 q 0.21431,-1.89971 1.52929,-3.05858 c 2.24367,-1.97909 4.08517,-0.74348 5.17525,1.54252 q 0.0688,0.14552 0.15346,0.0106 c 6.32619,-10.20762 0.64823,-23.60877 -11.39031,-25.47673 -15.10771,-2.34685 -25.02694,15.08919 -15.39346,26.99809 q 0.0767,0.0953 0.10583,-0.0238 c 0.36248,-1.43404 0.94721,-3.51102 2.62467,-3.91318 z"
       id="path110"
       style="fill:#000000;fill-opacity:1;stroke-width:0.264583" /><ellipse
       fill="#000000"
       cx="132.90356"
       cy="-305.38773"
       transform="rotate(89.599999)"
       rx="6.2865"
       ry="6.0272083"
       id="ellipse114"
       style="fill:#000000;fill-opacity:1;stroke-width:0.264583" /><circle
       fill="#000000"
       cx="296.72491"
       cy="135.56523"
       r="2.5108957"
       id="circle130"
       style="fill:#000000;fill-opacity:1;stroke-width:0.264583" /><circle
       fill="#000000"
       cx="316.40726"
       cy="135.56258"
       r="2.5003123"
       id="circle131"
       style="fill:#000000;fill-opacity:1;stroke-width:0.264583" /></g></svg>
