<?xml version="1.0" encoding="UTF-8" standalone="no"?>
<!-- Created with Inkscape (http://www.inkscape.org/) -->

<svg
   width="53.974995mm"
   height="53.445835mm"
   viewBox="0 0 53.974995 53.445835"
   version="1.1"
   id="svg1"
   xml:space="preserve"
   xmlns:inkscape="http://www.inkscape.org/namespaces/inkscape"
   xmlns:sodipodi="http://sodipodi.sourceforge.net/DTD/sodipodi-0.dtd"
   xmlns="http://www.w3.org/2000/svg"
   xmlns:svg="http://www.w3.org/2000/svg"><sodipodi:namedview
     id="namedview1"
     pagecolor="#ffffff"
     bordercolor="#999999"
     borderopacity="1"
     inkscape:showpageshadow="2"
     inkscape:pageopacity="0"
     inkscape:pagecheckerboard="0"
     inkscape:deskcolor="#d1d1d1"
     inkscape:document-units="mm" /><defs
     id="defs1" /><g
     inkscape:label="Capa 1"
     inkscape:groupmode="layer"
     id="layer1"
     transform="translate(-44.324601,-148.5)"><path
       fill="#ffffff"
       d="m 44.3246,148.5 h 53.974999 v 53.44583 H 44.3246 Z m 49.29452,27.20975 A 22.590125,22.590125 0 0 0 71.028995,153.11962 22.590125,22.590125 0 0 0 48.438871,175.70975 22.590125,22.590125 0 0 0 71.028995,198.29987 22.590125,22.590125 0 0 0 93.61912,175.70975 Z"
       id="path3"
       style="stroke-width:0.264583" /><path
       fill="#ac1522"
       d="M 93.61912,175.70975 A 22.590125,22.590125 0 0 1 71.028995,198.29987 22.590125,22.590125 0 0 1 48.438871,175.70975 22.590125,22.590125 0 0 1 71.028995,153.11962 22.590125,22.590125 0 0 1 93.61912,175.70975 Z M 75.537495,187.33554 A 3.6380208,3.6380208 0 0 0 80.9641,184.16848 V 167.2616 a 3.6380208,3.6380208 0 0 0 -5.426605,-3.16706 l -14.988645,8.45079 a 3.6380208,3.6380208 0 0 0 0,6.33942 z"
       id="path4-6"
       style="stroke-width:0.264583" /><path
       fill="#ffffff"
       d="M 75.537495,187.33554 60.54885,178.88475 a 3.6380208,3.6380208 0 0 1 0,-6.33942 l 14.988645,-8.45079 a 3.6380208,3.6380208 0 0 1 5.426605,3.16706 v 16.90688 a 3.6380208,3.6380208 0 0 1 -5.426605,3.16706 z"
       id="path5-2"
       style="stroke-width:0.264583" /></g></svg>
