<?xml version="1.0" encoding="UTF-8" standalone="no"?>
<!-- Created with Inkscape (http://www.inkscape.org/) -->

<svg
   width="37.322124mm"
   height="37.830105mm"
   viewBox="0 0 37.322124 37.830105"
   version="1.1"
   id="svg1"
   xml:space="preserve"
   xmlns:inkscape="http://www.inkscape.org/namespaces/inkscape"
   xmlns:sodipodi="http://sodipodi.sourceforge.net/DTD/sodipodi-0.dtd"
   xmlns="http://www.w3.org/2000/svg"
   xmlns:svg="http://www.w3.org/2000/svg"><sodipodi:namedview
     id="namedview1"
     pagecolor="#ffffff"
     bordercolor="#999999"
     borderopacity="1"
     inkscape:showpageshadow="2"
     inkscape:pageopacity="0"
     inkscape:pagecheckerboard="0"
     inkscape:deskcolor="#d1d1d1"
     inkscape:document-units="mm" /><defs
     id="defs1" /><g
     inkscape:label="Capa 1"
     inkscape:groupmode="layer"
     id="layer1"
     transform="translate(-12.451291,-59.640402)"><path
       stroke="#808080"
       vector-effect="non-scaling-stroke"
       d="M 31.210011,97.205667 A 18.650479,18.396479 89.7 0 0 49.508568,78.459118 18.650479,18.396479 89.7 0 0 31.014696,59.905238 18.650479,18.396479 89.7 0 0 12.716139,78.651787 18.650479,18.396479 89.7 0 0 31.210011,97.205667"
       id="path1"
       style="fill:none;stroke-width:0.529167;stroke-linecap:butt"
       inkscape:export-filename="place_red.svg"
       inkscape:export-xdpi="96"
       inkscape:export-ydpi="96" /><path
       stroke="#808080"
       vector-effect="non-scaling-stroke"
       d="M 31.144024,95.18978 A 16.631708,16.383 89.9 0 0 47.497973,78.529497 16.631708,16.383 89.9 0 0 31.085975,61.926417 16.631708,16.383 89.9 0 0 14.732026,78.5867 16.631708,16.383 89.9 0 0 31.144024,95.18978"
       id="path38"
       style="fill:none;stroke-width:0.529167;stroke-linecap:butt" /><path
       stroke="#808080"
       vector-effect="non-scaling-stroke"
       d="m 32.083375,86.612015 -0.0026,-15.930563 q 0,-0.206375 -0.206375,-0.206375 h -1.084792 q -0.164042,0 -0.164042,0.166688 l -0.0026,15.97025 a 0.08466667,0.08466667 0 0 1 -0.145521,0.06085 q -1.653646,-1.621896 -3.304646,-3.272896 c -0.830792,-0.833437 -1.80975,0.288396 -1.190625,0.912813 q 2.489729,2.502958 4.870979,4.87627 a 0.74877082,0.75141666 45.1 0 0 1.055688,0 q 2.309812,-2.283354 4.550833,-4.545541 c 1.100667,-1.108604 -0.166688,-2.090208 -0.933979,-1.264709 q -1.595438,1.706563 -3.309938,3.291417 -0.132291,0.124354 -0.132291,-0.05821"
       id="path41"
       style="fill:none;stroke-width:0.529167;stroke-linecap:butt" /><path
       fill="#000000"
       d="M 31.210011,97.205667 A 18.650479,18.396479 89.7 0 1 12.716139,78.651787 18.650479,18.396479 89.7 0 1 31.014696,59.905238 18.650479,18.396479 89.7 0 1 49.508568,78.459118 18.650479,18.396479 89.7 0 1 31.210011,97.205667 Z M 31.144024,95.18978 A 16.631708,16.383 89.9 0 0 47.497973,78.529497 16.631708,16.383 89.9 0 0 31.085975,61.926417 16.631708,16.383 89.9 0 0 14.732026,78.5867 16.631708,16.383 89.9 0 0 31.144024,95.18978 Z"
       id="path75"
       style="fill:#000000;fill-opacity:1;stroke-width:0.264583" /><path
       fill="#000000"
       d="m 32.215666,86.670223 q 1.7145,-1.584854 3.309938,-3.291417 c 0.767291,-0.825499 2.034646,0.156105 0.933979,1.264709 q -2.241021,2.262187 -4.550833,4.545541 a 0.74877082,0.75141666 45.1 0 1 -1.055688,0 q -2.38125,-2.373312 -4.870979,-4.87627 c -0.619125,-0.624417 0.359833,-1.74625 1.190625,-0.912813 q 1.651,1.651 3.304646,3.272896 a 0.08466667,0.08466667 0 0 0 0.145521,-0.06085 l 0.0026,-15.97025 q 0,-0.166688 0.164042,-0.166688 h 1.084792 q 0.206375,0 0.206375,0.206375 l 0.0026,15.930563 q 0,0.182562 0.132291,0.05821 z"
       id="path82"
       style="fill:#000000;fill-opacity:1;stroke-width:0.264583" /></g></svg>
