<?xml version="1.0" encoding="UTF-8" standalone="no"?>
<!-- Created with Inkscape (http://www.inkscape.org/) -->

<svg
   width="37.316875mm"
   height="37.830135mm"
   viewBox="0 0 37.316875 37.830135"
   version="1.1"
   id="svg1"
   xml:space="preserve"
   xmlns:inkscape="http://www.inkscape.org/namespaces/inkscape"
   xmlns:sodipodi="http://sodipodi.sourceforge.net/DTD/sodipodi-0.dtd"
   xmlns="http://www.w3.org/2000/svg"
   xmlns:svg="http://www.w3.org/2000/svg"><sodipodi:namedview
     id="namedview1"
     pagecolor="#ffffff"
     bordercolor="#999999"
     borderopacity="1"
     inkscape:showpageshadow="2"
     inkscape:pageopacity="0"
     inkscape:pagecheckerboard="0"
     inkscape:deskcolor="#d1d1d1"
     inkscape:document-units="mm" /><defs
     id="defs1" /><g
     inkscape:label="Capa 1"
     inkscape:groupmode="layer"
     id="layer1"
     transform="translate(-12.453916,-110.09114)"><path
       stroke="#d68a91"
       vector-effect="non-scaling-stroke"
       d="M 31.242555,147.65623 A 18.650479,18.393833 89.6 0 0 49.505737,128.8778 18.650479,18.393833 89.6 0 0 30.982152,110.35617 18.650479,18.393833 89.6 0 0 12.71897,129.1346 18.650479,18.393833 89.6 0 0 31.242555,147.65623"
       id="path17"
       style="fill:none;stroke-width:0.529167;stroke-linecap:butt" /><path
       stroke="#d68a91"
       vector-effect="non-scaling-stroke"
       d="m 47.307499,126.62231 c -1.053041,-7.35277 -6.723062,-13.13657 -14.128749,-14.09436 -11.697229,-1.51077 -20.801542,9.50913 -17.925521,20.6719 q 1.751542,6.79714 7.979833,10.3796 0.108479,0.0635 0.119063,-0.0609 c 0.333375,-3.49515 2.399771,-7.61736 5.950479,-8.6995 5.331354,-1.62454 9.130771,3.89466 9.506479,8.54868 a 0.206375,0.206375 0 0 0 0.312208,0.1614 c 5.931958,-3.48721 9.170458,-10.04623 8.186208,-16.90687"
       id="path59"
       style="fill:none;stroke-width:0.529167;stroke-linecap:butt" /><path
       stroke="#d68a91"
       vector-effect="non-scaling-stroke"
       d="m 37.396128,128.02841 a 6.2864999,6.0324999 0.3 0 0 -6.254829,-6.06534 6.2864999,6.0324999 0.3 0 0 -6.318012,5.99951 6.2864999,6.0324999 0.3 0 0 6.25483,6.06533 6.2864999,6.0324999 0.3 0 0 6.318011,-5.9995"
       id="path61"
       style="fill:none;stroke-width:0.529167;stroke-linecap:butt" /><path
       fill="#ac1522"
       d="M 31.242555,147.65623 A 18.650479,18.393833 89.6 0 1 12.71897,129.1346 18.650479,18.393833 89.6 0 1 30.982152,110.35617 18.650479,18.393833 89.6 0 1 49.505737,128.8778 18.650479,18.393833 89.6 0 1 31.242555,147.65623 Z m 16.064944,-21.03392 c -1.053041,-7.35277 -6.723062,-13.13657 -14.128749,-14.09436 -11.697229,-1.51077 -20.801542,9.50913 -17.925521,20.6719 q 1.751542,6.79714 7.979833,10.3796 0.108479,0.0635 0.119063,-0.0609 c 0.333375,-3.49515 2.399771,-7.61736 5.950479,-8.6995 5.331354,-1.62454 9.130771,3.89466 9.506479,8.54868 a 0.206375,0.206375 0 0 0 0.312208,0.1614 c 5.931958,-3.48721 9.170458,-10.04623 8.186208,-16.90687 z"
       id="path106"
       style="stroke-width:0.264583" /><ellipse
       fill="#ac1522"
       cx="31.779463"
       cy="127.83085"
       transform="rotate(0.30000028)"
       rx="6.2865"
       ry="6.0324998"
       id="ellipse111"
       style="stroke-width:0.264583" /></g></svg>
